<svg width="17" height="16" viewBox="0 0 17 16" fill="none" xmlns="http://www.w3.org/2000/svg">
<path d="M15.9376 10.5234C15.6188 10.5234 15.3267 10.7891 15.3267 11.1344V13.4984C15.3267 13.7375 15.1407 13.9234 14.9017 13.9234H2.09854C1.85947 13.9234 1.67354 13.7375 1.67354 13.4984V11.1344C1.67354 10.8156 1.40791 10.5234 1.0626 10.5234C0.717285 10.5234 0.45166 10.7891 0.45166 11.1344V13.4984C0.45166 14.4016 1.16885 15.1188 2.07197 15.1188H14.9017C15.8048 15.1188 16.522 14.4016 16.522 13.4984V11.1344C16.5485 10.7891 16.2563 10.5234 15.9376 10.5234Z" fill="#475467"/>
<path d="M8.07505 11.1609C8.1813 11.2672 8.34067 11.3203 8.50005 11.3203C8.65942 11.3203 8.79224 11.2672 8.92505 11.1609L12.7235 7.46873C12.9625 7.22966 12.9625 6.85779 12.75 6.61873C12.511 6.37966 12.1391 6.37966 11.9 6.59216L9.11099 9.3281V1.49216C9.11099 1.17341 8.84536 0.881226 8.50005 0.881226C8.1813 0.881226 7.88911 1.14685 7.88911 1.49216V9.3281L5.10005 6.61873C4.86099 6.37966 4.48911 6.40623 4.25005 6.61873C4.01099 6.85779 4.03755 7.22966 4.25005 7.46873L8.07505 11.1609Z" fill="#475467"/>
</svg>
